<?xml version="1.0" encoding="UTF-8" standalone="no"?>
<!DOCTYPE svg PUBLIC "-//W3C//DTD SVG 1.1//EN"
 "http://www.w3.org/Graphics/SVG/1.1/DTD/svg11.dtd">
<!-- Generated by graphviz version 2.30.1 (20130706.2129)
 -->
<!-- Title: models_diagram Pages: 1 -->
<svg width="417pt" height="608pt"
 viewBox="0.00 0.00 417.43 608.00" xmlns="http://www.w3.org/2000/svg" xmlns:xlink="http://www.w3.org/1999/xlink">
<g id="graph0" class="graph" transform="scale(1 1) rotate(0) translate(4 604)">
<title>models_diagram</title>
<polygon fill="white" stroke="white" points="-4,5 -4,-604 414.425,-604 414.425,5 -4,5"/>
<!-- _diagram_info -->
<g id="node1" class="node"><title>_diagram_info</title>
<text text-anchor="start" x="7.55029" y="-583" font-family="Times,serif" font-size="13.00">Models diagram</text>
<text text-anchor="start" x="7.55029" y="-567.4" font-family="Times,serif" font-size="13.00">Date: Oct 17 2013 &#45; 21:20</text>
<text text-anchor="start" x="7.55029" y="-551.8" font-family="Times,serif" font-size="13.00">Migration version: 20131017171134</text>
<text text-anchor="start" x="7.55029" y="-536.2" font-family="Times,serif" font-size="13.00">Generated by RailRoady 1.1.1</text>
<text text-anchor="start" x="7.55029" y="-520.6" font-family="Times,serif" font-size="13.00">http://railroady.prestonlee.com</text>
</g>
<!-- Applicant -->
<g id="node2" class="node"><title>Applicant</title>
<path fill="none" stroke="black" d="M258.495,-326.8C258.495,-326.8 367.505,-326.8 367.505,-326.8 373.505,-326.8 379.505,-332.8 379.505,-338.8 379.505,-338.8 379.505,-465.2 379.505,-465.2 379.505,-471.2 373.505,-477.2 367.505,-477.2 367.505,-477.2 258.495,-477.2 258.495,-477.2 252.495,-477.2 246.495,-471.2 246.495,-465.2 246.495,-465.2 246.495,-338.8 246.495,-338.8 246.495,-332.8 252.495,-326.8 258.495,-326.8"/>
<text text-anchor="middle" x="313" y="-459.2" font-family="Times,serif" font-size="14.00">Applicant</text>
<polyline fill="none" stroke="black" points="246.495,-452.4 379.505,-452.4 "/>
<text text-anchor="start" x="254.495" y="-434.4" font-family="Times,serif" font-size="14.00">id :integer</text>
<text text-anchor="start" x="254.495" y="-417.6" font-family="Times,serif" font-size="14.00">name :string</text>
<text text-anchor="start" x="254.495" y="-400.8" font-family="Times,serif" font-size="14.00">contacts :text</text>
<text text-anchor="start" x="254.495" y="-384" font-family="Times,serif" font-size="14.00">status :string</text>
<text text-anchor="start" x="254.495" y="-367.2" font-family="Times,serif" font-size="14.00">salary :integer</text>
<text text-anchor="start" x="254.495" y="-350.4" font-family="Times,serif" font-size="14.00">created_at :datetime</text>
<text text-anchor="start" x="254.495" y="-333.6" font-family="Times,serif" font-size="14.00">updated_at :datetime</text>
</g>
<!-- Skill -->
<g id="node3" class="node"><title>Skill</title>
<path fill="none" stroke="black" d="M192.495,-189C192.495,-189 301.505,-189 301.505,-189 307.505,-189 313.505,-195 313.505,-201 313.505,-201 313.505,-277 313.505,-277 313.505,-283 307.505,-289 301.505,-289 301.505,-289 192.495,-289 192.495,-289 186.495,-289 180.495,-283 180.495,-277 180.495,-277 180.495,-201 180.495,-201 180.495,-195 186.495,-189 192.495,-189"/>
<text text-anchor="middle" x="247" y="-271" font-family="Times,serif" font-size="14.00">Skill</text>
<polyline fill="none" stroke="black" points="180.495,-264.2 313.505,-264.2 "/>
<text text-anchor="start" x="188.495" y="-246.2" font-family="Times,serif" font-size="14.00">id :integer</text>
<text text-anchor="start" x="188.495" y="-229.4" font-family="Times,serif" font-size="14.00">name :string</text>
<text text-anchor="start" x="188.495" y="-212.6" font-family="Times,serif" font-size="14.00">created_at :datetime</text>
<text text-anchor="start" x="188.495" y="-195.8" font-family="Times,serif" font-size="14.00">updated_at :datetime</text>
</g>
<!-- Applicant&#45;&gt;Skill -->
<g id="edge1" class="edge"><title>Applicant&#45;&gt;Skill</title>
<path fill="none" stroke="#13997e" d="M278.603,-317.092C276.038,-310.836 273.485,-304.607 271.005,-298.557"/>
<polygon fill="#13997e" stroke="#13997e" points="278.718,-317.374 278.348,-328.333 280.615,-322 282.512,-326.627 282.512,-326.627 282.512,-326.627 280.615,-322 286.675,-324.92 278.718,-317.374 278.718,-317.374"/>
<polygon fill="#13997e" stroke="#13997e" points="270.97,-298.472 271.341,-287.513 269.073,-293.846 267.177,-289.22 267.177,-289.22 267.177,-289.22 269.073,-293.846 263.013,-290.926 270.97,-298.472 270.97,-298.472"/>
</g>
<!-- Vacancy -->
<g id="node4" class="node"><title>Vacancy</title>
<path fill="none" stroke="black" d="M287.495,-0.8C287.495,-0.8 396.505,-0.8 396.505,-0.8 402.505,-0.8 408.505,-6.8 408.505,-12.8 408.505,-12.8 408.505,-139.2 408.505,-139.2 408.505,-145.2 402.505,-151.2 396.505,-151.2 396.505,-151.2 287.495,-151.2 287.495,-151.2 281.495,-151.2 275.495,-145.2 275.495,-139.2 275.495,-139.2 275.495,-12.8 275.495,-12.8 275.495,-6.8 281.495,-0.8 287.495,-0.8"/>
<text text-anchor="middle" x="342" y="-133.2" font-family="Times,serif" font-size="14.00">Vacancy</text>
<polyline fill="none" stroke="black" points="275.495,-126.4 408.505,-126.4 "/>
<text text-anchor="start" x="283.495" y="-108.4" font-family="Times,serif" font-size="14.00">id :integer</text>
<text text-anchor="start" x="283.495" y="-91.6" font-family="Times,serif" font-size="14.00">name :string</text>
<text text-anchor="start" x="283.495" y="-74.8" font-family="Times,serif" font-size="14.00">upto :date</text>
<text text-anchor="start" x="283.495" y="-58" font-family="Times,serif" font-size="14.00">salary :integer</text>
<text text-anchor="start" x="283.495" y="-41.2" font-family="Times,serif" font-size="14.00">contacts :text</text>
<text text-anchor="start" x="283.495" y="-24.4" font-family="Times,serif" font-size="14.00">created_at :datetime</text>
<text text-anchor="start" x="283.495" y="-7.6" font-family="Times,serif" font-size="14.00">updated_at :datetime</text>
</g>
<!-- Applicant&#45;&gt;Vacancy -->
<g id="edge2" class="edge"><title>Applicant&#45;&gt;Vacancy</title>
<path fill="none" stroke="#4955e8" d="M320.554,-316.609C324.836,-268.769 330.176,-209.105 334.456,-161.283"/>
<polygon fill="#4955e8" stroke="#4955e8" points="320.545,-316.708 315.171,-326.267 320.099,-321.688 319.653,-326.668 319.653,-326.668 319.653,-326.668 320.099,-321.688 324.135,-327.069 320.545,-316.708 320.545,-316.708"/>
<polygon fill="#4955e8" stroke="#4955e8" points="334.461,-161.226 339.835,-151.667 334.907,-156.246 335.353,-151.266 335.353,-151.266 335.353,-151.266 334.907,-156.246 330.871,-150.865 334.461,-161.226 334.461,-161.226"/>
</g>
<!-- Skill&#45;&gt;Vacancy -->
<g id="edge4" class="edge"><title>Skill&#45;&gt;Vacancy</title>
<path fill="none" stroke="#da9992" d="M281.194,-180.049C284.97,-173.651 288.867,-167.047 292.78,-160.415"/>
<polygon fill="#da9992" stroke="#da9992" points="281.101,-180.207 272.144,-186.533 278.56,-184.514 276.019,-188.82 276.019,-188.82 276.019,-188.82 278.56,-184.514 279.895,-191.107 281.101,-180.207 281.101,-180.207"/>
<polygon fill="#da9992" stroke="#da9992" points="293.033,-159.986 301.991,-153.66 295.574,-155.68 298.115,-151.373 298.115,-151.373 298.115,-151.373 295.574,-155.68 294.239,-149.087 293.033,-159.986 293.033,-159.986"/>
</g>
<!-- ActiveRecord::Base -->
<g id="node5" class="node"><title>ActiveRecord::Base</title>
<ellipse fill="none" stroke="black" cx="313" cy="-557" rx="88.2033" ry="18"/>
<text text-anchor="middle" x="313" y="-551.4" font-family="Times,serif" font-size="14.00">ActiveRecord::Base</text>
</g>
<!-- ActiveRecord::Base&#45;&gt;Applicant -->
<g id="edge3" class="edge"><title>ActiveRecord::Base&#45;&gt;Applicant</title>
<path fill="none" stroke="black" d="M313,-538.746C313,-523.585 313,-500.424 313,-477.502"/>
</g>
<!-- ActiveRecord::Base&#45;&gt;Skill -->
<g id="edge5" class="edge"><title>ActiveRecord::Base&#45;&gt;Skill</title>
<path fill="none" stroke="black" d="M289.093,-539.622C270.974,-525.643 247.469,-503.746 237,-478 212.076,-416.704 222.213,-339.059 233.321,-289.446"/>
</g>
<!-- ActiveRecord::Base&#45;&gt;Vacancy -->
<g id="edge6" class="edge"><title>ActiveRecord::Base&#45;&gt;Vacancy</title>
<path fill="none" stroke="black" d="M336.6,-539.551C354.485,-525.532 377.683,-503.616 388,-478 431.394,-370.262 399.313,-233.935 371.3,-151.204"/>
</g>
</g>
</svg>
